<?xml version="1.0" encoding="utf-8"?>
<!-- Generator: Adobe Illustrator 24.1.3, SVG Export Plug-In . SVG Version: 6.00 Build 0)  -->
<svg version="1.1" xmlns="http://www.w3.org/2000/svg" xmlns:xlink="http://www.w3.org/1999/xlink" x="0px" y="0px"
	 viewBox="0 0 298.5 156.1" style="enable-background:new 0 0 298.5 156.1;" xml:space="preserve">
<style type="text/css">
	.st0{fill:#FFFFFF;}
	.st1{fill:none;}
	.st2{fill:#171717;}
	.st3{fill:#F2F1F4;}
	.st4{display:none;fill:none;stroke:#FFF200;stroke-miterlimit:10;}
	.st5{fill:#5986C5;}
	.st6{fill:#638AC7;}
	.st7{display:none;fill:#F2F1F4;}
</style>
<g id="Layer_12">
</g>
<g id="Background">
</g>
<g id="Layer_18">
</g>
<g id="Layer_16">
</g>
<g id="Layer_17">
</g>
<g id="Layer_15">
	<g id="Layer_2">
		<g id="Layer_6">
		</g>
	</g>
</g>
<g id="Layer_13">
</g>
<g id="Layer_14">
</g>
<g id="Layer_3">
</g>
<g id="Layer_4">
</g>
<g id="Layer_5">
</g>
<g id="Layer_1">
	<g>
		<path class="st2" d="M172.1,42.1c-0.8,1-1.2,2.3-1.2,4v5.8h7.4L178,54h-7.2v20h-2.7V54h-4.7v-2.2h4.7v-5.7c0-1.6,0.3-3,0.9-4.2
			c0.6-1.2,1.5-2.1,2.6-2.7c1.1-0.6,2.4-1,3.9-1c0.9,0,1.7,0.1,2.5,0.2c0.8,0.2,1.5,0.4,2.3,0.7l-0.8,2.2c-0.7-0.2-1.4-0.4-2-0.6
			c-0.6-0.1-1.2-0.2-1.9-0.2C174.1,40.6,172.9,41.1,172.1,42.1z"/>
		<path class="st2" d="M184.6,73c-1.5-1-2.7-2.4-3.5-4.2c-0.8-1.8-1.2-3.8-1.2-6c0-2.6,0.5-4.8,1.5-6.6c1-1.7,2.3-3,4-3.8
			c1.6-0.8,3.5-1.2,5.6-1.2c2.2,0,4.1,0.5,5.7,1.5c1.6,1,2.7,2.4,3.5,4.1c0.8,1.8,1.2,3.7,1.2,6c0,2.7-0.5,4.9-1.4,6.6
			c-1,1.7-2.3,3-3.9,3.8c-1.6,0.8-3.5,1.2-5.7,1.2C188,74.6,186.2,74,184.6,73z M196.6,69.7c1.3-1.7,2-4,2-6.9
			c0-2.8-0.6-5.1-1.9-6.8c-1.3-1.7-3.3-2.5-5.9-2.5c-2.8,0-4.8,0.8-6.1,2.5c-1.3,1.7-2,3.9-2,6.8c0,2.9,0.7,5.1,2,6.8
			c1.3,1.7,3.3,2.6,6,2.6S195.3,71.4,196.6,69.7z"/>
		<path class="st2" d="M210.1,73.2c-1.5-0.9-2.6-2.1-3.4-3.8c-0.8-1.7-1.2-3.7-1.2-6c0-2.7,0.5-5,1.6-6.8c1-1.8,2.4-3.2,4-4
			c1.6-0.9,3.3-1.3,5.1-1.3c2.2,0,4.4,0.6,6.7,1.8l-1,2.1c-1.1-0.5-2.1-0.9-3.1-1.2s-1.9-0.4-2.9-0.4c-1.6,0-3,0.4-4.1,1.2
			c-1.2,0.8-2.1,2-2.7,3.5c-0.6,1.5-0.9,3.2-0.9,5.1c0,5.8,2.5,8.8,7.4,8.8c1.2,0,2.4-0.2,3.5-0.6c1.1-0.4,2.2-0.9,3.3-1.6l1.1,2
			c-2.5,1.8-5.2,2.6-8.2,2.6C213.3,74.6,211.6,74.1,210.1,73.2z"/>
		<path class="st2" d="M246.5,51.5V74H244l-0.2-2.1c-1.2,0.8-2.6,1.4-4,1.9c-1.4,0.5-2.8,0.7-4.3,0.7c-2.1,0-3.8-0.5-5.2-1.6
			c-1.4-1.1-2.1-2.9-2.1-5.4V51.8l2.7-0.3v15.2c0,1.3,0.2,2.4,0.5,3.1c0.3,0.8,0.9,1.4,1.6,1.8c0.8,0.4,1.8,0.6,3.1,0.6
			c1.2,0,2.5-0.2,3.8-0.7s2.5-1.1,3.7-1.8V51.8L246.5,51.5z"/>
		<path class="st2" d="M256.2,73.8c-1.5-0.5-2.9-1.2-4.3-2.2l1.3-2c2.5,1.8,5.1,2.7,7.9,2.7c1.8,0,3.2-0.4,4.3-1.1
			c1.1-0.7,1.6-1.7,1.6-3c0-0.8-0.2-1.5-0.6-2.1c-0.4-0.6-1-1-1.8-1.4c-0.8-0.4-1.9-0.8-3.3-1.2l-1.7-0.5c-2.2-0.5-3.9-1.3-5-2.2
			c-1.1-0.9-1.7-2.1-1.7-3.7c0-1.2,0.3-2.2,1-3.1c0.7-0.9,1.6-1.6,2.8-2.1c1.2-0.5,2.5-0.7,4-0.7c1.4,0,2.8,0.2,4,0.5
			c1.3,0.3,2.6,0.9,4.1,1.7l-1.2,2c-1.4-0.7-2.6-1.2-3.7-1.5c-1.1-0.3-2.2-0.4-3.4-0.4c-1.6,0-2.8,0.3-3.8,0.9
			c-0.9,0.6-1.4,1.5-1.4,2.6c0,0.7,0.2,1.2,0.5,1.7c0.3,0.4,0.8,0.8,1.5,1.1c0.7,0.3,1.6,0.6,2.8,0.9l1.7,0.5c1.8,0.5,3.3,1,4.4,1.6
			c1.1,0.6,1.9,1.3,2.5,2.1c0.5,0.8,0.8,1.9,0.8,3.1c0,1.3-0.3,2.4-1,3.4c-0.7,1-1.7,1.8-3,2.3s-2.8,0.8-4.6,0.8
			C259.4,74.6,257.7,74.3,256.2,73.8z"/>
	</g>
	<g>
		<polygon class="st6" points="120.1,114.2 120.1,114.2 121.2,113.1 121.2,108.3 126,108.3 127.1,107.2 127.1,107.2 121.2,107.2 
			121.2,101.3 120.1,102.4 120.1,107.2 115.4,107.2 114.2,108.3 120.1,108.3 		"/>
	</g>
	<g>
		<polygon class="st6" points="59.4,114.2 59.4,114.2 60.5,113.1 60.5,108.3 65.3,108.3 66.4,107.2 66.4,107.2 60.5,107.2 
			60.5,101.3 59.4,102.4 59.4,107.2 54.6,107.2 53.5,108.3 59.4,108.3 		"/>
	</g>
	<g>
		<path class="st2" d="M79.2,74.9c-2.7,0-5-0.6-7-1.7s-3.5-2.7-4.6-4.7c-1.1-2-1.6-4.3-1.6-7V51.3c0-2.7,0.5-5,1.6-7
			s2.6-3.6,4.6-4.7c2-1.1,4.3-1.7,7-1.7c2.7,0,5,0.6,7,1.7c2,1.1,3.5,2.7,4.6,4.7s1.6,4.3,1.6,7v10.3c0,2.7-0.5,5-1.6,7
			c-1.1,2-2.6,3.6-4.6,4.7C84.1,74.3,81.8,74.9,79.2,74.9z M79.2,68.1c1.9,0,3.3-0.6,4.5-1.7c1.1-1.2,1.7-2.7,1.7-4.6V51.1
			c0-1.9-0.6-3.5-1.7-4.6c-1.1-1.2-2.6-1.7-4.5-1.7c-1.9,0-3.3,0.6-4.5,1.7c-1.1,1.2-1.7,2.7-1.7,4.6v10.6c0,1.9,0.6,3.4,1.7,4.6
			C75.8,67.5,77.3,68.1,79.2,68.1z"/>
		<path class="st2" d="M99.6,74.5V38.3h6.8v36.2H99.6z M102.3,59.9v-6.6h12.6c1.1,0,1.9-0.4,2.6-1.2c0.6-0.8,1-1.8,1-3.1
			c0-1.3-0.3-2.3-1-3.1c-0.6-0.8-1.5-1.2-2.6-1.2h-12.6v-6.6h13.1c2,0,3.8,0.4,5.3,1.3c1.5,0.9,2.7,2.2,3.5,3.8
			c0.8,1.6,1.2,3.5,1.2,5.7c0,2.2-0.4,4.1-1.3,5.7c-0.8,1.6-2,2.9-3.5,3.8s-3.2,1.3-5.3,1.3H102.3z M118.7,74.5l-8.8-15.7l7.3-1.1
			l9.8,16.8H118.7z"/>
		<path class="st2" d="M132.9,74.5V38.3h6.8v36.2H132.9z M135.3,44.9v-6.6h21.8v6.6H135.3z M135.3,59.8v-6.6h19.1v6.6H135.3z
			 M135.3,74.5v-6.6h21.8v6.6H135.3z"/>
	</g>
	<g>
		<polygon class="st2" points="40.8,51.9 40.8,38.3 34,38.3 34,62.2 		"/>
		<polygon class="st2" points="50.4,53.3 61.2,38.3 52.7,38.3 34,66.6 34,74.5 40.8,74.5 40.8,66.7 46,59.5 54.6,74.5 62.7,74.5 		
			"/>
	</g>
	<polygon class="st6" points="34,89.6 267.4,89.6 269.8,87.2 269.8,87.2 36.4,87.2 	"/>
	<g>
		<rect x="130.1" y="101.2" class="st1" width="144" height="16.9"/>
		<path class="st2" d="M133.6,113.8c-0.8-0.5-1.5-1.3-1.9-2.3c-0.4-1-0.6-2.1-0.6-3.3c0-1.4,0.3-2.6,0.8-3.5s1.2-1.6,2.1-2.1
			c0.9-0.5,1.8-0.7,2.8-0.7c1.2,0,2.2,0.3,3,0.8c0.8,0.5,1.5,1.3,1.9,2.3s0.6,2.1,0.6,3.3c0,1.4-0.3,2.6-0.8,3.6
			c-0.5,1-1.2,1.7-2.1,2.1c-0.9,0.5-1.8,0.7-2.8,0.7C135.4,114.6,134.4,114.3,133.6,113.8z M139.1,113c0.7-0.5,1.2-1.1,1.6-1.9
			c0.3-0.8,0.5-1.7,0.5-2.8c0-1.1-0.2-2-0.5-2.8c-0.3-0.8-0.8-1.5-1.5-2s-1.5-0.7-2.5-0.7s-1.8,0.2-2.5,0.7s-1.2,1.1-1.6,1.9
			c-0.3,0.8-0.5,1.8-0.5,2.8s0.2,2,0.5,2.8s0.8,1.5,1.5,2c0.7,0.5,1.5,0.7,2.5,0.7C137.6,113.7,138.4,113.5,139.1,113z"/>
		<path class="st2" d="M153.6,114.3L153.6,114.3l-1.2,0.1l-3.9-5.1h-2.4v5.1h-1.1v-12.3h3.6c0.9,0,1.7,0.1,2.3,0.4
			c0.6,0.3,1.1,0.7,1.5,1.2c0.3,0.5,0.5,1.1,0.5,1.9c0,0.6-0.1,1.2-0.4,1.7c-0.2,0.5-0.6,0.9-1.1,1.3c-0.5,0.3-1.1,0.6-1.8,0.7
			L153.6,114.3z M146.1,108.4h2.5c1.1,0,1.9-0.2,2.5-0.7c0.5-0.5,0.8-1.2,0.8-2s-0.3-1.5-0.8-2c-0.5-0.5-1.4-0.7-2.5-0.7h-2.5V108.4
			z"/>
		<path class="st2" d="M157.2,113.8c-0.8-0.5-1.5-1.3-1.9-2.2s-0.6-2.1-0.6-3.4c0-1.4,0.3-2.6,0.8-3.6s1.2-1.6,2-2.1
			c0.8-0.4,1.7-0.7,2.7-0.7c0.7,0,1.4,0.1,2.1,0.3c0.6,0.2,1.2,0.5,1.8,0.8l-0.5,0.8c-0.5-0.3-1.1-0.6-1.6-0.7
			c-0.5-0.2-1.1-0.2-1.8-0.2c-1,0-1.8,0.2-2.5,0.7s-1.2,1.1-1.5,1.9c-0.3,0.8-0.5,1.7-0.5,2.8c0,1.1,0.2,2,0.5,2.8s0.8,1.5,1.5,1.9
			c0.7,0.5,1.5,0.7,2.5,0.7c0.7,0,1.3-0.1,1.8-0.3c0.6-0.2,1.1-0.4,1.7-0.7l0.4,0.8c-1.3,0.8-2.6,1.2-4,1.2
			C159,114.6,158,114.3,157.2,113.8z"/>
		<path class="st2" d="M175,102.1h1.1v12.3H175v-5.8h-7.6v5.8h-1.1v-12.3h1.1v5.6h7.6V102.1z"/>
		<path class="st2" d="M180.8,113.5h6.3v0.9h-7.3v-12.3h7.2v0.9h-6.2v4.7h5.4l-0.1,0.9h-5.3V113.5z"/>
		<path class="st2" d="M191,114.3c-0.7-0.2-1.4-0.6-2-1l0.5-0.8c0.6,0.4,1.2,0.7,1.8,0.9s1.3,0.3,1.9,0.3c1.1,0,1.9-0.2,2.4-0.6
			c0.5-0.4,0.8-1,0.8-1.8c0-0.5-0.1-0.9-0.4-1.2c-0.2-0.3-0.6-0.6-1-0.8c-0.4-0.2-1-0.5-1.7-0.7l-0.4-0.1c-0.8-0.3-1.4-0.6-1.9-0.8
			c-0.5-0.3-0.9-0.6-1.2-1c-0.3-0.4-0.5-0.9-0.5-1.5c0-0.6,0.2-1.2,0.5-1.7c0.4-0.5,0.8-0.8,1.4-1.1c0.6-0.2,1.2-0.4,1.9-0.4
			c0.7,0,1.4,0.1,2,0.3c0.6,0.2,1.3,0.5,1.9,0.9l-0.5,0.8c-0.6-0.4-1.1-0.6-1.7-0.8c-0.5-0.2-1.1-0.2-1.7-0.2
			c-0.5,0-0.9,0.1-1.3,0.2s-0.8,0.4-1.1,0.7c-0.3,0.3-0.4,0.7-0.4,1.2c0,0.4,0.1,0.8,0.3,1c0.2,0.3,0.5,0.5,0.9,0.7
			c0.4,0.2,0.9,0.4,1.6,0.7l0.4,0.1c0.8,0.3,1.5,0.6,2,0.8c0.5,0.3,0.9,0.6,1.3,1.1c0.4,0.5,0.5,1.1,0.5,1.8c0,0.7-0.2,1.3-0.5,1.8
			c-0.3,0.5-0.8,0.9-1.4,1.1c-0.6,0.3-1.4,0.4-2.3,0.4C192.4,114.6,191.7,114.5,191,114.3z"/>
		<path class="st2" d="M208.8,102.1v0.9h-4.4v11.4h-1.1V103h-4.5v-0.9H208.8z"/>
		<path class="st2" d="M219.6,114.3L219.6,114.3l-1.2,0.1l-3.9-5.1h-2.4v5.1H211v-12.3h3.6c0.9,0,1.7,0.1,2.3,0.4
			c0.6,0.3,1.1,0.7,1.5,1.2c0.3,0.5,0.5,1.1,0.5,1.9c0,0.6-0.1,1.2-0.4,1.7c-0.2,0.5-0.6,0.9-1.1,1.3c-0.5,0.3-1.1,0.6-1.8,0.7
			L219.6,114.3z M212.1,108.4h2.5c1.1,0,1.9-0.2,2.5-0.7c0.5-0.5,0.8-1.2,0.8-2s-0.3-1.5-0.8-2c-0.5-0.5-1.4-0.7-2.5-0.7h-2.5V108.4
			z"/>
		<path class="st2" d="M226.4,102.1l4.9,12.2v0.1h-1.1l-1.5-3.9h-5.7l-1.5,3.9h-1v-0.1l4.8-12.2H226.4z M223.3,109.7h5l-2.5-6.4
			L223.3,109.7z"/>
		<path class="st2" d="M240.2,102.1v0.9h-4.4v11.4h-1.1V103h-4.5v-0.9H240.2z"/>
		<path class="st2" d="M242.4,114.4v-12.3h1.1v12.3H242.4z"/>
		<path class="st2" d="M248.8,113.8c-0.8-0.5-1.5-1.3-1.9-2.3c-0.4-1-0.6-2.1-0.6-3.3c0-1.4,0.3-2.6,0.8-3.5s1.2-1.6,2.1-2.1
			c0.9-0.5,1.8-0.7,2.8-0.7c1.2,0,2.2,0.3,3,0.8c0.8,0.5,1.5,1.3,1.9,2.3s0.6,2.1,0.6,3.3c0,1.4-0.3,2.6-0.8,3.6
			c-0.5,1-1.2,1.7-2.1,2.1c-0.9,0.5-1.8,0.7-2.8,0.7C250.6,114.6,249.6,114.3,248.8,113.8z M254.3,113c0.7-0.5,1.2-1.1,1.6-1.9
			c0.3-0.8,0.5-1.7,0.5-2.8c0-1.1-0.2-2-0.5-2.8c-0.3-0.8-0.8-1.5-1.5-2s-1.5-0.7-2.5-0.7s-1.8,0.2-2.5,0.7s-1.2,1.1-1.6,1.9
			c-0.3,0.8-0.5,1.8-0.5,2.8s0.2,2,0.5,2.8s0.8,1.5,1.5,2c0.7,0.5,1.5,0.7,2.5,0.7C252.8,113.7,253.6,113.5,254.3,113z"/>
		<path class="st2" d="M269.8,102.1v12.3h-1.2l-6.5-9.6c0-0.1-0.2-0.2-0.3-0.5s-0.3-0.5-0.4-0.7v10.8h-1.1v-12.3h1.2l6.5,9.5
			c0.2,0.2,0.3,0.5,0.5,0.7s0.3,0.5,0.4,0.7v-10.9H269.8z"/>
	</g>
	<g>
		<rect x="69.8" y="101.2" class="st1" width="44.1" height="16.9"/>
		<path class="st2" d="M79.6,103.6c1.1,1,1.6,2.6,1.6,4.7c0,2.1-0.6,3.6-1.7,4.6s-2.8,1.5-5,1.5h-2.8v-12.3h3.3
			C77,102.1,78.5,102.6,79.6,103.6z M77.4,113c0.8-0.3,1.5-0.8,2-1.6c0.5-0.8,0.7-1.8,0.7-3.2c0-1.7-0.4-3.1-1.2-3.9
			S76.8,103,75,103h-2.3v10.5h1.7C75.6,113.5,76.6,113.3,77.4,113z"/>
		<path class="st2" d="M88,102.1l4.9,12.2v0.1h-1.1l-1.5-3.9h-5.7l-1.5,3.9h-1v-0.1l4.8-12.2H88z M84.9,109.7h5l-2.5-6.4L84.9,109.7
			z"/>
		<path class="st2" d="M101.8,102.1v0.9h-4.4v11.4h-1.1V103h-4.5v-0.9H101.8z"/>
		<path class="st2" d="M106.7,102.1l4.9,12.2v0.1h-1.1l-1.5-3.9h-5.7l-1.5,3.9h-1v-0.1l4.8-12.2H106.7z M103.6,109.7h5l-2.5-6.4
			L103.6,109.7z"/>
	</g>
	<g>
		<rect x="33.5" y="101.2" class="st1" width="17.9" height="16.9"/>
		<path class="st2" d="M40,102.1l4.9,12.2v0.1h-1.1l-1.5-3.9h-5.7l-1.5,3.9h-1v-0.1l4.8-12.2H40z M36.9,109.7h5l-2.5-6.4L36.9,109.7
			z"/>
		<path class="st2" d="M47.1,114.4v-12.3h1.1v12.3H47.1z"/>
	</g>
</g>
</svg>
