<?xml version="1.0" encoding="utf-8"?>
<!-- Generator: Adobe Illustrator 24.1.3, SVG Export Plug-In . SVG Version: 6.00 Build 0)  -->
<svg version="1.1" xmlns="http://www.w3.org/2000/svg" xmlns:xlink="http://www.w3.org/1999/xlink" x="0px" y="0px"
	 viewBox="0 0 141.7 141.7" style="enable-background:new 0 0 141.7 141.7;" xml:space="preserve">
<style type="text/css">
	.st0{display:none;}
	.st1{display:inline;fill:#41B149;}
	.st2{display:inline;}
	.st3{fill:#FFFFFF;}
	.st4{fill:#171717;}
	.st5{fill:#F2F1F4;}
	.st6{fill:#5986C5;}
	.st7{fill:#638AC7;}
	.st8{display:inline;fill:none;stroke:#070C11;stroke-miterlimit:10;}
	.st9{display:inline;fill:#D6214E;stroke:#5986C5;stroke-miterlimit:8;}
</style>
<g id="Layer_8" class="st0">
</g>
<g id="Layer_12">
	<g id="Layer_7" class="st0">
	</g>
</g>
<g id="Background">
</g>
<g id="Layer_15">
	<g id="Layer_2">
		<g id="Layer_6">
		</g>
	</g>
</g>
<g id="Layer_13">
</g>
<g id="Layer_14">
</g>
<g id="Layer_3">
</g>
<g id="Layer_4">
</g>
<g id="Layer_5">
</g>
<g id="Layer_1">
	<g>
		<g>
			<path class="st4" d="M88.9,50c-0.8,1-1.2,2.3-1.2,4v5.8h7.4l-0.3,2.2h-7.2v20H85v-20h-4.7v-2.2H85v-5.7c0-1.6,0.3-3,0.9-4.2
				c0.6-1.2,1.5-2.1,2.6-2.7c1.1-0.6,2.4-1,3.9-1c0.9,0,1.7,0.1,2.5,0.2c0.8,0.2,1.5,0.4,2.3,0.7l-0.8,2.2c-0.7-0.2-1.4-0.4-2-0.6
				c-0.6-0.1-1.2-0.2-1.9-0.2C90.9,48.5,89.7,49,88.9,50z"/>
		</g>
		<g>
			<polygon class="st4" points="51.3,59.8 51.3,46.2 44.5,46.2 44.5,70.2 			"/>
			<polygon class="st4" points="61,61.2 71.7,46.2 63.2,46.2 44.5,74.5 44.5,82.5 51.3,82.5 51.3,74.6 56.5,67.4 65.2,82.5 
				73.3,82.5 			"/>
		</g>
		<g>
			<polygon class="st7" points="44.5,93.1 44.5,93.1 44.5,93.1 			"/>
			<polygon class="st7" points="97.2,93.1 97.2,93.1 46.9,93.1 44.5,95.5 44.5,95.5 94.8,95.5 			"/>
		</g>
	</g>
</g>
<g id="Layer_9" class="st0">
	<g id="Layer_11" class="st2">
	</g>
</g>
</svg>
